<svg xmlns="http://www.w3.org/2000/svg" width="574.4495849609375" height="59.748756408691406" viewBox="-350.59197998046875 -124.7723617553711 574.4495849609375 59.748756408691406"><title>Neo4j Graph Visualization</title><desc>Created using Neo4j (http://www.neo4j.com/)</desc><g class="layer relationships"><g class="relationship" transform="translate(194.8575585161185 -94.38444618260803) rotate(180.26618845262806)"><path class="b-outline" fill="#A5ABB6" stroke="none" d="M 25 0.5 L 28.69627626674726 0.5 L 28.69627626674726 -0.5 L 25 -0.5 Z M 84.48533876674726 0.5 L 88.18161503349452 0.5 L 88.18161503349452 3.5 L 95.18161503349452 0 L 88.18161503349452 -3.5 L 88.18161503349452 -0.5 L 84.48533876674726 -0.5 Z"/><text text-anchor="middle" pointer-events="none" font-size="8px" fill="#000000" x="56.59080751674726" y="3" transform="rotate(180 56.59080751674726 0)" font-family="Helvetica Neue, Helvetica, Arial, sans-serif">PURCHASES</text></g><g class="relationship" transform="translate(-61.65080226717019 -95.77236478668291) rotate(360.3486476270465)"><path class="b-outline" fill="#A5ABB6" stroke="none" d="M 25 0.5 L 36.77075212763802 0.5 L 36.77075212763802 -0.5 L 25 -0.5 Z M 92.55981462763802 0.5 L 104.33056675527604 0.5 L 104.33056675527604 3.5 L 111.33056675527604 0 L 104.33056675527604 -3.5 L 104.33056675527604 -0.5 L 92.55981462763802 -0.5 Z"/><text text-anchor="middle" pointer-events="none" font-size="8px" fill="#000000" x="64.66528337763802" y="3" font-family="Helvetica Neue, Helvetica, Arial, sans-serif">PURCHASES</text></g><g class="relationship" transform="translate(-61.65080226717019 -95.77236478668291) rotate(539.3185734928205)"><path class="b-outline" fill="#A5ABB6" stroke="none" d="M 25 0.5 L 41.49655860525138 0.5 L 41.49655860525138 -0.5 L 25 -0.5 Z M 77.72312110525138 0.5 L 94.21967971050276 0.5 L 94.21967971050276 3.5 L 101.21967971050276 0 L 94.21967971050276 -3.5 L 94.21967971050276 -0.5 L 77.72312110525138 -0.5 Z"/><text text-anchor="middle" pointer-events="none" font-size="8px" fill="#000000" x="59.60983985525138" y="3" transform="rotate(180 59.60983985525138 0)" font-family="Helvetica Neue, Helvetica, Arial, sans-serif">DRINKS</text></g><g class="relationship" transform="translate(-321.59197781543907 -94.02360639746087) rotate(359.8938981067763)"><path class="b-outline" fill="#A5ABB6" stroke="none" d="M 25 0.5 L 45.25204460459459 0.5 L 45.25204460459459 -0.5 L 25 -0.5 Z M 81.47860710459459 0.5 L 101.73065170918917 0.5 L 101.73065170918917 3.5 L 108.73065170918917 0 L 101.73065170918917 -3.5 L 101.73065170918917 -0.5 L 81.47860710459459 -0.5 Z"/><text text-anchor="middle" pointer-events="none" font-size="8px" fill="#000000" x="63.36532585459459" y="3" font-family="Helvetica Neue, Helvetica, Arial, sans-serif">DRINKS</text></g></g><g class="layer nodes"><g class="node" aria-label="graph-node55" transform="translate(194.8575585161185,-94.38444618260803)"><circle class="b-outline" cx="0" cy="0" r="25" fill="#C990C0" stroke="#b261a5" stroke-width="2px"/><text class="caption" text-anchor="middle" pointer-events="none" x="0" y="5" font-size="10px" fill="#FFFFFF" font-family="Helvetica Neue, Helvetica, Arial, sans-serif"> john.smi…</text></g><g class="node" aria-label="graph-node61" transform="translate(-321.59197781543907,-94.02360639746087)"><circle class="b-outline" cx="0" cy="0" r="25" fill="#C990C0" stroke="#b261a5" stroke-width="2px"/><text class="caption" text-anchor="middle" pointer-events="none" x="0" y="5" font-size="10px" fill="#FFFFFF" font-family="Helvetica Neue, Helvetica, Arial, sans-serif"> michael.…</text></g><g class="node" aria-label="graph-node133" transform="translate(74.67724048394246,-94.94279172445476)"><circle class="b-outline" cx="0" cy="0" r="25" fill="#57C7E3" stroke="#23b3d7" stroke-width="2px"/><text class="caption" text-anchor="middle" pointer-events="none" x="0" y="5" font-size="10px" fill="#2A2C34" font-family="Helvetica Neue, Helvetica, Arial, sans-serif"> 3001</text></g><g class="node" aria-label="graph-node56" transform="translate(-61.65080226717019,-95.77236478668291)"><circle class="b-outline" cx="0" cy="0" r="25" fill="#C990C0" stroke="#b261a5" stroke-width="2px"/><text class="caption" text-anchor="middle" pointer-events="none" x="0" y="5" font-size="10px" fill="#FFFFFF" font-family="Helvetica Neue, Helvetica, Arial, sans-serif"> joseph.l…</text></g><g class="node" aria-label="graph-node79" transform="translate(-187.86155540508216,-94.27125233821401)"><circle class="b-outline" cx="0" cy="0" r="25" fill="#F16667" stroke="#eb2728" stroke-width="2px"/><text class="caption" text-anchor="middle" pointer-events="none" x="0" y="5" font-size="10px" fill="#FFFFFF" font-family="Helvetica Neue, Helvetica, Arial, sans-serif"> 2010</text></g></g></svg>